<svg xmlns="http://www.w3.org/2000/svg" xmlns:xlink="http://www.w3.org/1999/xlink" width="500" zoomAndPan="magnify" viewBox="0 0 375 374.999991" height="500" preserveAspectRatio="xMidYMid meet" version="1.0"><defs><g/></defs><g fill="#fbf9f6" fill-opacity="1"><g transform="translate(0.0000045, 189.37225)"><g><path d="M 54.308594 0.648438 C 54.390625 0.566406 54.796875 -0.0820312 55.28125 -0.972656 L 56.175781 -2.597656 L 57.554688 -4.707031 L 58.609375 -6.25 C 59.421875 -7.46875 61.535156 -10.308594 61.613281 -10.390625 C 61.777344 -10.472656 62.589844 -11.609375 62.589844 -11.691406 L 62.75 -11.933594 L 63.644531 -13.070312 L 65.269531 -15.261719 L 66 -16.074219 L 73.710938 -25.246094 L 74.035156 -25.652344 L 77.445312 -29.222656 C 79.636719 -31.335938 80.367188 -32.148438 80.773438 -32.632812 L 82.152344 -33.933594 C 82.640625 -34.417969 83.128906 -34.90625 83.207031 -35.152344 L 83.53125 -35.476562 C 83.613281 -35.476562 84.019531 -35.800781 84.425781 -36.285156 C 85.320312 -37.261719 86.617188 -38.480469 87.265625 -38.964844 C 87.917969 -39.371094 89.945312 -41.078125 90.921875 -41.96875 L 92.867188 -43.753906 C 94.085938 -44.8125 94.25 -45.136719 93.84375 -45.378906 C 93.519531 -45.621094 93.03125 -45.460938 92.21875 -44.648438 C 91.730469 -44.242188 91.246094 -43.835938 91.164062 -43.835938 C 91 -43.753906 90.921875 -43.675781 90.921875 -43.59375 C 90.921875 -43.347656 85.398438 -38.804688 84.75 -38.558594 L 83.53125 -37.910156 L 79.148438 -35.394531 C 78.582031 -35.070312 77.851562 -34.582031 77.527344 -34.339844 C 77.203125 -34.015625 76.875 -33.851562 76.796875 -33.851562 L 75.902344 -33.285156 C 75.496094 -32.957031 74.847656 -32.472656 74.441406 -32.308594 L 73.386719 -31.578125 C 72.980469 -31.253906 70.542969 -29.710938 70.382812 -29.710938 L 69.894531 -29.386719 L 69.40625 -29.144531 C 69.40625 -29.222656 69.003906 -28.980469 68.597656 -28.65625 L 68.351562 -28.492188 L 66.808594 -27.601562 C 66.078125 -27.195312 65.347656 -26.789062 65.269531 -26.789062 C 65.1875 -26.789062 65.023438 -26.707031 64.941406 -26.625 C 64.539062 -26.058594 61.613281 -24.839844 60.640625 -24.757812 C 59.992188 -24.679688 59.910156 -24.679688 60.074219 -24.921875 C 60.074219 -25.085938 60.316406 -25.410156 60.476562 -25.734375 L 60.964844 -26.464844 L 61.613281 -27.355469 C 61.859375 -27.761719 62.425781 -28.492188 62.75 -29.0625 L 63.480469 -30.28125 L 64.375 -31.417969 C 65.023438 -32.308594 66.40625 -33.851562 67.054688 -34.582031 L 69.003906 -36.53125 L 69.894531 -37.585938 C 70.542969 -38.316406 71.113281 -38.964844 71.84375 -39.695312 C 72.003906 -39.859375 72.167969 -40.101562 72.167969 -40.101562 C 72.167969 -40.183594 72.980469 -40.914062 73.953125 -41.808594 L 76.390625 -44 L 77.28125 -44.890625 C 79.394531 -46.515625 80.285156 -47.328125 80.773438 -47.976562 L 81.585938 -48.789062 L 82.152344 -49.4375 L 83.859375 -51.304688 L 86.375 -53.984375 C 86.941406 -54.550781 87.347656 -54.957031 87.917969 -55.609375 L 88.566406 -56.339844 L 89.296875 -57.070312 C 90.191406 -58.125 90.191406 -58.773438 89.214844 -58.773438 C 88.972656 -58.773438 88.648438 -58.609375 88.160156 -58.042969 L 85.238281 -54.957031 C 84.75 -54.550781 84.183594 -53.984375 83.9375 -53.660156 C 83.695312 -53.253906 83.207031 -52.765625 82.882812 -52.441406 C 81.585938 -51.0625 80.855469 -50.332031 79.800781 -49.113281 C 78.742188 -47.976562 76.714844 -46.027344 76.46875 -46.027344 C 76.308594 -46.027344 74.523438 -44.40625 74.601562 -44.324219 C 74.683594 -44.324219 73.871094 -43.511719 72.898438 -42.617188 C 71.03125 -40.914062 70.625 -40.507812 69.164062 -38.882812 C 68.757812 -38.398438 68.351562 -37.992188 68.273438 -37.992188 C 68.191406 -38.074219 68.109375 -38.074219 68.191406 -37.992188 C 68.273438 -37.910156 67.867188 -37.34375 67.296875 -36.773438 L 65.023438 -34.339844 C 64.375 -33.527344 63.480469 -32.472656 63.15625 -31.984375 L 62.589844 -31.171875 C 62.34375 -30.929688 60.804688 -28.574219 60.804688 -28.492188 L 60.234375 -27.683594 C 59.503906 -26.707031 58.449219 -24.757812 58.449219 -24.433594 C 58.449219 -23.460938 60.640625 -23.625 62.996094 -24.679688 C 64.210938 -25.164062 66 -26.222656 66.324219 -26.546875 C 66.40625 -26.707031 66.566406 -26.789062 66.648438 -26.789062 C 66.730469 -26.789062 67.136719 -26.953125 67.539062 -27.195312 L 70.789062 -29.222656 L 72.816406 -30.359375 C 72.898438 -30.359375 73.0625 -30.523438 73.140625 -30.6875 C 73.304688 -30.847656 73.46875 -31.011719 73.546875 -31.011719 C 73.628906 -31.011719 73.871094 -31.171875 74.199219 -31.417969 C 74.523438 -31.660156 74.929688 -31.984375 75.089844 -32.066406 L 75.738281 -32.390625 C 76.144531 -32.714844 77.203125 -33.363281 77.445312 -33.527344 L 77.933594 -33.851562 C 78.417969 -34.257812 80.125 -35.230469 80.285156 -35.230469 C 80.367188 -35.230469 80.53125 -35.3125 80.609375 -35.476562 C 80.773438 -35.636719 81.097656 -35.882812 81.421875 -36.042969 L 83.046875 -36.855469 L 82.476562 -36.207031 L 80.042969 -33.769531 C 79.960938 -33.609375 78.5 -32.066406 77.933594 -31.578125 C 77.445312 -31.171875 76.390625 -30.035156 75.738281 -29.222656 L 74.847656 -28.167969 L 73.792969 -27.195312 L 72.898438 -26.058594 L 70.382812 -23.21875 L 69.328125 -21.835938 L 68.675781 -21.105469 C 68.433594 -20.78125 68.191406 -20.457031 68.109375 -20.457031 C 68.027344 -20.457031 68.027344 -20.375 68.027344 -20.292969 C 68.027344 -20.132812 66.566406 -18.347656 66.324219 -18.183594 L 65.511719 -17.128906 L 64.457031 -15.828125 L 63.320312 -14.367188 L 61.695312 -12.09375 L 60.398438 -10.230469 C 58.9375 -8.035156 57.960938 -6.65625 57.71875 -6.414062 C 57.554688 -6.25 57.476562 -6.167969 57.554688 -6.167969 C 57.554688 -6.167969 57.476562 -5.925781 57.3125 -5.683594 L 55.769531 -3.164062 L 54.632812 -0.894531 C 54.226562 -0.0820312 54.066406 0.730469 54.308594 0.648438 Z M 8.765625 1.867188 C 9.742188 2.355469 12.09375 1.949219 14.367188 0.972656 C 14.695312 0.8125 15.261719 0.566406 15.585938 0.566406 C 16.640625 0.324219 24.679688 -3.652344 25.488281 -4.382812 L 27.195312 -5.519531 C 28.738281 -6.496094 28.65625 -6.414062 29.550781 -7.226562 L 31.417969 -8.6875 L 33.769531 -10.632812 L 35.230469 -11.933594 L 36.207031 -12.664062 C 36.613281 -12.988281 37.34375 -13.558594 37.828125 -14.042969 L 45.621094 -20.621094 C 46.921875 -21.757812 48.949219 -23.460938 50.007812 -24.191406 C 50.738281 -24.757812 51.46875 -25.410156 51.46875 -25.652344 C 51.46875 -25.816406 52.117188 -26.382812 52.277344 -26.300781 C 52.359375 -26.300781 52.523438 -26.300781 52.683594 -26.464844 L 57.230469 -30.28125 C 57.394531 -30.441406 57.554688 -30.6875 57.636719 -30.929688 C 57.71875 -31.089844 57.878906 -31.335938 58.125 -31.417969 C 58.449219 -31.496094 60.074219 -32.878906 60.804688 -33.6875 L 61.613281 -34.5 L 66.324219 -38.882812 C 66.972656 -39.453125 67.785156 -40.347656 68.109375 -40.832031 C 68.433594 -41.320312 68.757812 -41.644531 68.921875 -41.5625 C 69.003906 -41.5625 69.082031 -41.5625 69.082031 -41.644531 C 69.082031 -41.808594 69.894531 -42.539062 70.300781 -42.78125 C 70.464844 -42.863281 70.542969 -43.023438 70.542969 -43.1875 C 70.464844 -43.347656 70.542969 -43.429688 70.789062 -43.429688 C 71.03125 -43.429688 71.195312 -43.59375 71.273438 -43.835938 C 71.355469 -44.082031 71.519531 -44.242188 71.601562 -44.242188 C 71.761719 -44.242188 72.410156 -44.8125 73.953125 -46.191406 L 75.578125 -47.570312 C 77.203125 -48.871094 78.257812 -49.925781 78.175781 -50.167969 C 78.011719 -50.414062 77.605469 -50.414062 77.445312 -50.085938 C 77.363281 -50.007812 76.957031 -49.601562 76.46875 -49.195312 C 75.007812 -47.976562 72.085938 -45.214844 71.925781 -44.890625 C 71.84375 -44.730469 71.761719 -44.648438 71.679688 -44.648438 C 71.601562 -44.730469 71.195312 -44.40625 70.871094 -44.082031 L 69.652344 -42.945312 C 69.40625 -42.699219 69.003906 -42.292969 68.839844 -42.050781 C 68.675781 -41.808594 68.433594 -41.644531 68.351562 -41.644531 C 68.351562 -41.644531 67.054688 -40.507812 65.671875 -39.128906 C 61.613281 -35.3125 59.097656 -32.957031 59.015625 -32.957031 C 58.9375 -32.957031 56.988281 -31.089844 55.445312 -29.710938 L 53.742188 -28.25 C 53.253906 -27.925781 52.683594 -27.355469 52.359375 -27.113281 C 52.117188 -26.789062 51.792969 -26.546875 51.710938 -26.546875 C 51.628906 -26.546875 51.386719 -26.382812 51.144531 -26.140625 L 46.839844 -22.648438 L 45.214844 -21.351562 C 44.972656 -21.105469 44.730469 -21.023438 44.730469 -21.023438 C 44.648438 -21.023438 44.484375 -20.863281 44.324219 -20.699219 L 42.214844 -18.832031 C 39.859375 -16.964844 39.210938 -16.398438 37.667969 -15.019531 C 36.9375 -14.367188 36.125 -13.71875 35.882812 -13.636719 C 35.554688 -13.476562 35.3125 -13.394531 35.3125 -13.3125 C 35.3125 -13.230469 34.90625 -12.746094 34.339844 -12.257812 L 33.039062 -11.039062 C 32.878906 -10.796875 32.632812 -10.632812 32.472656 -10.632812 C 32.390625 -10.632812 32.148438 -10.472656 31.902344 -10.230469 C 31.660156 -9.902344 31.335938 -9.660156 31.089844 -9.578125 C 30.929688 -9.578125 30.523438 -9.335938 30.359375 -9.171875 L 29.628906 -8.523438 C 29.46875 -8.441406 29.144531 -8.035156 28.898438 -7.792969 C 28.65625 -7.46875 28.492188 -7.226562 28.414062 -7.304688 C 28.332031 -7.304688 27.84375 -7.0625 27.277344 -6.65625 C 26.707031 -6.25 26.140625 -5.925781 26.058594 -5.925781 L 24.355469 -4.871094 C 23.460938 -4.300781 22.488281 -3.734375 22.160156 -3.652344 L 20.863281 -2.921875 L 19.078125 -2.109375 C 16.886719 -1.21875 16.480469 -1.054688 15.585938 -0.730469 L 13.558594 0 C 12.988281 0.242188 12.175781 0.40625 11.363281 0.40625 C 9.984375 0.488281 9.984375 0.488281 10.148438 0.0820312 C 10.390625 -0.8125 10.390625 -1.054688 10.066406 -1.21875 C 9.902344 -1.378906 9.660156 -1.378906 9.335938 -1.300781 C 8.6875 -1.054688 8.28125 -0.40625 8.199219 0.648438 L 8.117188 1.625 Z M 8.765625 1.867188 "/></g></g></g><g fill="#fbf9f6" fill-opacity="1"><g transform="translate(82.634158, 189.37225)"><g><path d="M -0.972656 -22.082031 C 0.164062 -22.082031 1.867188 -23.296875 2.273438 -23.949219 L 2.515625 -24.027344 C 3.328125 -23.867188 4.300781 -23.785156 5.359375 -23.785156 C 6.496094 -23.785156 9.09375 -24.109375 10.796875 -24.839844 L 11.527344 -25.164062 C 11.691406 -25.246094 11.769531 -25.410156 11.691406 -25.570312 C 11.609375 -25.734375 11.363281 -25.734375 11.285156 -25.652344 C 9.742188 -25.003906 7.957031 -24.355469 5.195312 -24.355469 C 4.546875 -24.355469 3.898438 -24.433594 3.410156 -24.597656 C 3.246094 -24.679688 3.085938 -24.757812 2.761719 -24.839844 L 2.761719 -25.570312 C 2.761719 -25.652344 2.761719 -25.816406 2.679688 -25.894531 C 2.597656 -26.058594 2.355469 -26.222656 2.109375 -26.222656 L 1.054688 -26.300781 L 0.894531 -26.382812 L 0.242188 -26.140625 L -1.136719 -24.757812 C -1.378906 -24.515625 -2.273438 -22.972656 -1.867188 -22.324219 C -1.625 -22 -1.625 -22 -0.972656 -22.082031 Z M 1.625 -25.246094 C 1.460938 -25.328125 1.378906 -25.410156 1.542969 -25.410156 C 1.625 -25.410156 1.703125 -25.328125 1.785156 -25.328125 C 1.785156 -25.246094 1.785156 -25.164062 1.625 -25.246094 Z M -0.730469 -22.8125 C -0.8125 -22.8125 -1.136719 -23.21875 -0.40625 -24.191406 C 0.0820312 -24.839844 0.324219 -24.921875 0.566406 -24.921875 L 0.894531 -24.679688 L 1.378906 -24.433594 C 1.460938 -24.355469 1.785156 -24.273438 0.730469 -23.378906 C 0 -22.730469 -0.648438 -22.8125 -0.730469 -22.8125 Z M -0.730469 -22.8125 "/></g></g></g><g fill="#fbf9f6" fill-opacity="1"><g transform="translate(93.99839, 189.37225)"><g><path d="M 36.613281 -38.480469 C 36.207031 -38.640625 35.554688 -38.722656 33.6875 -38.882812 C 31.984375 -39.046875 19.402344 -39.535156 17.859375 -39.535156 L 15.585938 -39.617188 L 14.042969 -39.617188 C 14.289062 -39.941406 15.019531 -40.75 15.503906 -41.15625 C 15.828125 -41.402344 16.15625 -41.726562 16.480469 -42.132812 C 16.804688 -42.539062 17.941406 -43.59375 18.507812 -44.082031 L 19.320312 -44.730469 L 19.644531 -45.136719 C 19.890625 -45.378906 19.890625 -45.460938 19.726562 -45.703125 C 19.644531 -45.867188 19.484375 -45.949219 19.402344 -45.949219 C 19.238281 -45.949219 18.265625 -45.214844 18.183594 -44.972656 L 17.453125 -44.324219 C 16.558594 -43.59375 16.398438 -43.511719 16.234375 -43.269531 C 16.074219 -43.105469 13.960938 -41.078125 13.636719 -40.832031 L 13.394531 -40.589844 L 12.746094 -39.859375 L 12.421875 -39.535156 L 0.972656 -39.289062 L -0.8125 -39.128906 C -2.191406 -39.046875 -6.089844 -38.722656 -6.738281 -38.558594 C -7.386719 -38.398438 -7.710938 -38.074219 -7.46875 -37.828125 C -7.386719 -37.667969 -5.765625 -37.828125 -4.628906 -38.074219 C -4.382812 -38.152344 -2.433594 -38.398438 -0.488281 -38.480469 L 1.542969 -38.640625 L 3.734375 -38.722656 L 6.414062 -38.882812 C 7.144531 -38.964844 9.902344 -38.964844 11.691406 -38.964844 C 11.609375 -38.804688 11.445312 -38.722656 11.363281 -38.558594 L 11.121094 -38.398438 L 10.878906 -38.074219 L 9.902344 -37.019531 C 8.765625 -35.800781 5.195312 -31.902344 4.464844 -30.847656 C 4.464844 -30.847656 3.164062 -29.304688 3.164062 -29.386719 C 3.164062 -29.304688 2.839844 -28.980469 2.515625 -28.65625 C 2.109375 -28.25 1.460938 -27.519531 -0.242188 -25.488281 L -0.894531 -24.757812 L -1.542969 -23.949219 C -1.703125 -23.703125 -1.785156 -23.542969 -1.867188 -23.542969 C -2.03125 -23.542969 -2.433594 -23.054688 -3.734375 -21.351562 C -4.222656 -20.78125 -4.628906 -20.292969 -4.789062 -20.214844 C -4.871094 -20.050781 -5.683594 -19.078125 -6.574219 -18.023438 L -8.605469 -15.503906 L -11.933594 -11.039062 C -12.746094 -9.902344 -13.230469 -9.253906 -13.394531 -9.335938 L -13.394531 -9.171875 C -13.394531 -9.09375 -13.394531 -8.929688 -13.476562 -8.765625 C -13.558594 -8.523438 -13.636719 -8.441406 -13.71875 -8.523438 C -13.71875 -8.441406 -13.800781 -8.363281 -13.800781 -8.363281 C -13.800781 -8.199219 -13.800781 -8.117188 -13.882812 -8.117188 C -13.882812 -8.199219 -14.125 -7.710938 -14.289062 -7.144531 C -14.613281 -6.332031 -14.695312 -6.007812 -14.613281 -5.601562 C -14.449219 -5.113281 -14.367188 -5.03125 -14.125 -4.953125 C -13.800781 -4.953125 -13.636719 -4.953125 -13.558594 -5.113281 C -13.394531 -5.359375 -13.394531 -5.359375 -13.71875 -5.4375 C -14.042969 -5.4375 -14.042969 -5.519531 -14.042969 -5.84375 C -13.960938 -6.25 -13.3125 -7.628906 -12.746094 -8.523438 C -11.203125 -10.796875 -7.144531 -15.992188 -4.546875 -18.996094 L -3.246094 -20.539062 L -0.566406 -23.625 L 1.625 -26.058594 L 2.355469 -26.953125 L 3.328125 -28.007812 C 4.058594 -28.820312 4.707031 -29.628906 6.089844 -31.253906 C 6.574219 -31.820312 7.144531 -32.390625 7.386719 -32.632812 C 7.628906 -32.878906 8.035156 -33.363281 8.28125 -33.6875 L 9.660156 -35.152344 C 10.554688 -36.125 11.121094 -36.613281 11.609375 -37.261719 L 12.339844 -37.992188 C 12.582031 -38.316406 12.828125 -38.480469 12.988281 -38.722656 L 13.394531 -38.964844 C 14.042969 -39.046875 14.53125 -38.964844 14.773438 -38.964844 L 15.097656 -38.964844 C 19.808594 -38.882812 31.089844 -38.558594 32.714844 -38.316406 C 33.203125 -38.152344 34.015625 -38.152344 34.417969 -38.074219 C 35.230469 -38.074219 35.230469 -38.074219 35.070312 -37.75 C 34.90625 -37.585938 34.988281 -37.421875 35.070312 -37.34375 C 35.230469 -37.179688 35.3125 -37.097656 35.394531 -37.179688 L 36.207031 -37.503906 C 37.097656 -37.910156 37.179688 -38.152344 36.613281 -38.480469 Z M 36.613281 -38.480469 "/></g></g></g><g fill="#fbf9f6" fill-opacity="1"><g transform="translate(100.898098, 189.37225)"><g><path d="M -0.972656 -22.082031 C 0.164062 -22.082031 1.867188 -23.296875 2.273438 -23.949219 L 2.515625 -24.027344 C 3.328125 -23.867188 4.300781 -23.785156 5.359375 -23.785156 C 6.496094 -23.785156 9.09375 -24.109375 10.796875 -24.839844 L 11.527344 -25.164062 C 11.691406 -25.246094 11.769531 -25.410156 11.691406 -25.570312 C 11.609375 -25.734375 11.363281 -25.734375 11.285156 -25.652344 C 9.742188 -25.003906 7.957031 -24.355469 5.195312 -24.355469 C 4.546875 -24.355469 3.898438 -24.433594 3.410156 -24.597656 C 3.246094 -24.679688 3.085938 -24.757812 2.761719 -24.839844 L 2.761719 -25.570312 C 2.761719 -25.652344 2.761719 -25.816406 2.679688 -25.894531 C 2.597656 -26.058594 2.355469 -26.222656 2.109375 -26.222656 L 1.054688 -26.300781 L 0.894531 -26.382812 L 0.242188 -26.140625 L -1.136719 -24.757812 C -1.378906 -24.515625 -2.273438 -22.972656 -1.867188 -22.324219 C -1.625 -22 -1.625 -22 -0.972656 -22.082031 Z M 1.625 -25.246094 C 1.460938 -25.328125 1.378906 -25.410156 1.542969 -25.410156 C 1.625 -25.410156 1.703125 -25.328125 1.785156 -25.328125 C 1.785156 -25.246094 1.785156 -25.164062 1.625 -25.246094 Z M -0.730469 -22.8125 C -0.8125 -22.8125 -1.136719 -23.21875 -0.40625 -24.191406 C 0.0820312 -24.839844 0.324219 -24.921875 0.566406 -24.921875 L 0.894531 -24.679688 L 1.378906 -24.433594 C 1.460938 -24.355469 1.785156 -24.273438 0.730469 -23.378906 C 0 -22.730469 -0.648438 -22.8125 -0.730469 -22.8125 Z M -0.730469 -22.8125 "/></g></g></g><g fill="#fbf9f6" fill-opacity="1"><g transform="translate(112.26233, 189.37225)"><g><path d="M -2.191406 -21.835938 C -2.03125 -22.082031 -1.542969 -22.40625 -1.21875 -22.648438 L -0.324219 -23.296875 C 0 -23.625 0.488281 -23.867188 2.191406 -24.679688 L 3.085938 -25.164062 C 3.492188 -25.328125 3.570312 -25.328125 3.898438 -25.085938 C 4.382812 -24.839844 5.03125 -24.921875 6.167969 -25.328125 L 7.46875 -25.976562 L 8.363281 -26.382812 C 8.523438 -26.464844 8.929688 -26.546875 9.09375 -26.546875 C 9.335938 -26.546875 9.496094 -26.625 9.742188 -26.789062 C 10.230469 -27.277344 10.308594 -27.519531 10.148438 -27.761719 C 9.984375 -28.089844 9.742188 -28.089844 9.09375 -27.601562 C 8.765625 -27.4375 8.523438 -27.277344 8.441406 -27.277344 C 8.363281 -27.277344 8.117188 -27.195312 7.875 -27.03125 C 7.144531 -26.546875 5.519531 -25.816406 5.03125 -25.816406 C 4.871094 -25.816406 4.789062 -25.894531 4.707031 -26.140625 C 4.628906 -26.625 4.382812 -26.707031 3.898438 -26.464844 C 3.734375 -26.300781 2.03125 -25.570312 1.625 -25.328125 L 0.894531 -25.003906 C 0.648438 -24.839844 0.894531 -25.164062 1.542969 -25.734375 C 2.355469 -26.464844 2.515625 -26.953125 2.03125 -27.113281 C 1.785156 -27.195312 1.625 -27.195312 1.300781 -26.953125 C 0.566406 -26.546875 -1.300781 -24.679688 -1.949219 -23.867188 L -2.679688 -22.972656 C -2.921875 -22.648438 -3.164062 -22.324219 -3.246094 -22.160156 C -3.328125 -21.511719 -2.597656 -21.351562 -2.191406 -21.835938 Z M -2.191406 -21.835938 "/></g></g></g><g fill="#fbf9f6" fill-opacity="1"><g transform="translate(124.92533, 189.37225)"><g><path d="M 1.300781 -20.539062 C 3.410156 -20.78125 7.144531 -21.511719 10.390625 -22.890625 C 12.5 -23.785156 12.828125 -23.785156 15.585938 -25.085938 L 15.828125 -25.246094 C 16.964844 -25.816406 16.15625 -25.894531 15.828125 -25.816406 C 15.828125 -25.734375 10.472656 -23.625 10.472656 -23.542969 C 7.46875 -22.40625 4.464844 -21.511719 0.648438 -21.269531 C -0.730469 -21.269531 -1.21875 -21.675781 -1.378906 -22.082031 C -1.460938 -22.324219 -1.625 -23.054688 -1.21875 -23.625 L -0.894531 -24.027344 C 0.164062 -25.164062 1.949219 -26.464844 2.679688 -26.546875 L 3.003906 -26.546875 L 2.597656 -26.140625 C 2.355469 -25.816406 2.191406 -25.570312 2.273438 -25.488281 L 2.355469 -25.246094 C 2.355469 -25.164062 2.515625 -25.164062 2.597656 -25.164062 C 2.921875 -25.246094 4.058594 -26.625 3.976562 -26.953125 C 3.976562 -27.195312 3.492188 -27.519531 3.164062 -27.4375 C 2.109375 -27.277344 0.242188 -26.464844 -1.21875 -25.003906 C -2.03125 -24.191406 -2.433594 -23.625 -2.433594 -22.730469 C -2.433594 -22 -1.949219 -20.945312 -0.894531 -20.699219 C -0.242188 -20.539062 0.0820312 -20.457031 1.300781 -20.539062 Z M 1.300781 -20.539062 "/></g></g></g><g fill="#fbf9f6" fill-opacity="1"><g transform="translate(140.754063, 189.37225)"><g><path d="M -38.398438 9.660156 C -37.992188 9.660156 -36.53125 9.171875 -36.125 8.847656 L -33.933594 7.628906 C -33.363281 7.304688 -32.714844 6.980469 -31.417969 6.332031 C -30.765625 6.007812 -29.222656 5.113281 -27.761719 4.300781 C -26.140625 3.328125 -23.867188 1.785156 -22.566406 0.8125 C -22.160156 0.488281 -21.835938 0.324219 -21.757812 0.324219 C -21.757812 0.324219 -21.675781 0.242188 -21.675781 0.164062 C -21.59375 0.164062 -21.269531 -0.164062 -20.863281 -0.40625 L -19.808594 -1.21875 C -18.183594 -2.433594 -14.9375 -5.277344 -11.691406 -8.441406 C -8.441406 -11.527344 -7.628906 -12.257812 -7.226562 -12.257812 L -6.089844 -12.664062 C -5.113281 -12.988281 -2.679688 -13.71875 -1.867188 -13.882812 L 1.300781 -14.449219 C 1.703125 -14.613281 2.515625 -14.695312 2.921875 -14.695312 L 4.222656 -14.773438 C 4.871094 -14.9375 6.25 -14.855469 6.25 -14.773438 C 6.25 -14.773438 6.25 -14.695312 6.167969 -14.695312 C 6.007812 -14.695312 5.84375 -14.207031 6.007812 -14.125 C 6.167969 -13.882812 8.035156 -14.207031 8.363281 -14.449219 C 8.929688 -14.855469 8.6875 -15.585938 8.035156 -15.667969 C 7.226562 -15.828125 5.195312 -15.828125 3.652344 -15.667969 L 1.785156 -15.425781 C 1.542969 -15.34375 1.21875 -15.34375 1.136719 -15.261719 C 0.972656 -15.179688 0.8125 -15.179688 0.648438 -15.179688 C 0.488281 -15.179688 0.242188 -15.179688 0.242188 -15.097656 C 0.164062 -15.019531 -0.164062 -14.9375 -0.566406 -14.9375 C -0.972656 -14.855469 -2.03125 -14.695312 -2.921875 -14.449219 L -5.84375 -13.71875 C -6.167969 -13.558594 -6.007812 -13.800781 -5.113281 -14.773438 C -2.679688 -17.210938 2.515625 -22.242188 3.816406 -24.191406 C 3.816406 -24.191406 3.816406 -24.273438 3.898438 -24.273438 C 4.058594 -24.355469 4.628906 -24.839844 4.789062 -25.003906 C 4.871094 -25.085938 4.953125 -25.328125 4.953125 -25.410156 C 4.953125 -25.570312 4.789062 -25.652344 4.707031 -25.734375 L 4.628906 -25.816406 C 4.464844 -25.894531 4.300781 -25.894531 4.058594 -25.816406 C 3.976562 -25.734375 3.898438 -25.734375 3.410156 -25.164062 C 3.328125 -25.003906 3.164062 -24.839844 3.003906 -24.757812 L 1.703125 -24.109375 C 1.625 -24.109375 1.460938 -24.027344 1.378906 -23.949219 C 1.21875 -23.867188 0.730469 -23.625 0.242188 -23.460938 C -1.21875 -22.890625 -1.21875 -23.136719 0.0820312 -24.679688 L 0.324219 -24.921875 L 0.566406 -25.085938 L 0.730469 -25.164062 L 0.894531 -25.328125 C 1.054688 -25.488281 0.972656 -25.734375 0.894531 -25.816406 C 0.8125 -25.976562 0.648438 -25.976562 0.488281 -25.976562 L 0.164062 -25.976562 C 0.0820312 -25.894531 0 -25.816406 0 -25.734375 L -0.324219 -25.488281 L -1.300781 -24.433594 C -1.625 -24.109375 -1.949219 -23.378906 -1.867188 -23.054688 L -1.785156 -22.648438 C -1.785156 -22.566406 -1.625 -22.40625 -1.460938 -22.324219 C -1.136719 -22.160156 -0.972656 -22.160156 -0.40625 -22.324219 L 0.488281 -22.730469 C 0.8125 -22.890625 1.785156 -23.378906 2.191406 -23.542969 L -4.300781 -16.964844 L -5.195312 -15.992188 C -5.683594 -15.34375 -8.363281 -12.746094 -8.765625 -12.582031 C -8.929688 -12.5 -9.253906 -12.339844 -9.417969 -12.339844 C -9.578125 -12.339844 -9.742188 -12.257812 -9.824219 -12.175781 C -9.902344 -12.09375 -10.230469 -12.015625 -10.554688 -11.851562 L -11.691406 -11.445312 C -12.015625 -11.285156 -12.339844 -11.203125 -12.421875 -11.203125 C -12.5 -11.203125 -12.582031 -11.203125 -12.582031 -11.121094 C -12.582031 -11.039062 -12.746094 -11.039062 -12.90625 -10.960938 C -13.394531 -10.878906 -16.886719 -9.253906 -17.859375 -8.6875 L -20.539062 -7.144531 C -20.699219 -6.980469 -20.863281 -6.898438 -20.945312 -6.898438 C -21.105469 -6.898438 -22.40625 -6.167969 -22.648438 -5.925781 C -22.8125 -5.765625 -22.972656 -5.683594 -22.972656 -5.683594 C -22.972656 -5.765625 -23.054688 -5.683594 -23.136719 -5.601562 L -23.785156 -5.195312 L -24.679688 -4.546875 C -24.597656 -4.628906 -24.921875 -4.300781 -25.164062 -4.300781 C -25.164062 -4.222656 -25.410156 -3.976562 -25.816406 -3.652344 L -27.601562 -2.273438 L -28.738281 -1.378906 C -29.550781 -0.730469 -30.605469 0.242188 -31.253906 0.8125 L -32.632812 2.03125 C -33.609375 2.921875 -35.476562 4.707031 -36.691406 5.925781 C -37.992188 7.226562 -38.804688 8.199219 -38.964844 8.765625 C -39.046875 9.171875 -38.722656 9.660156 -38.398438 9.660156 Z M -38.152344 8.847656 C -38.152344 8.035156 -31.820312 1.867188 -28.167969 -0.972656 L -27.601562 -1.460938 C -27.519531 -1.542969 -27.355469 -1.625 -27.277344 -1.625 C -27.113281 -1.625 -27.03125 -1.703125 -27.03125 -1.785156 C -27.03125 -1.949219 -26.953125 -2.109375 -26.789062 -2.191406 C -26.625 -2.191406 -26.222656 -2.433594 -25.976562 -2.679688 L -25.164062 -3.328125 L -25.003906 -3.410156 L -24.515625 -3.816406 C -24.273438 -4.058594 -24.027344 -4.222656 -23.949219 -4.222656 C -23.867188 -4.222656 -23.785156 -4.222656 -23.785156 -4.300781 C -23.785156 -4.382812 -23.460938 -4.546875 -23.136719 -4.789062 L -21.675781 -5.765625 C -21.1875 -6.089844 -20.699219 -6.332031 -20.699219 -6.332031 C -20.621094 -6.332031 -20.457031 -6.414062 -20.292969 -6.496094 C -20.132812 -6.65625 -19.890625 -6.820312 -19.644531 -6.898438 C -19.402344 -6.980469 -19.160156 -7.144531 -18.996094 -7.226562 C -18.507812 -7.710938 -14.613281 -9.660156 -13.230469 -10.066406 C -12.746094 -10.230469 -12.257812 -10.390625 -12.09375 -10.554688 C -11.933594 -10.632812 -11.691406 -10.796875 -11.609375 -10.796875 C -11.527344 -10.796875 -11.121094 -10.878906 -10.796875 -11.121094 C -10.066406 -11.445312 -9.902344 -11.527344 -9.902344 -11.363281 C -9.902344 -11.285156 -12.582031 -8.523438 -13.960938 -7.144531 C -15.667969 -5.519531 -17.292969 -4.140625 -18.589844 -3.085938 L -19.160156 -2.597656 L -20.621094 -1.460938 C -20.699219 -1.378906 -20.863281 -1.21875 -21.105469 -1.136719 C -21.269531 -0.972656 -21.675781 -0.730469 -21.917969 -0.566406 C -22.082031 -0.324219 -22.566406 0 -22.8125 0.164062 L -23.542969 0.648438 C -24.027344 1.054688 -24.839844 1.625 -26.222656 2.515625 L -27.761719 3.570312 C -28.167969 3.898438 -30.523438 5.195312 -32.066406 6.007812 L -34.5 7.304688 C -37.261719 8.765625 -38.152344 9.09375 -38.152344 8.847656 Z M -38.152344 8.847656 "/></g></g></g><g fill="#fbf9f6" fill-opacity="1"><g transform="translate(151.874762, 189.37225)"><g><path d="M 1.300781 -20.539062 C 3.410156 -20.78125 7.144531 -21.511719 10.390625 -22.890625 C 12.5 -23.785156 12.828125 -23.785156 15.585938 -25.085938 L 15.828125 -25.246094 C 16.964844 -25.816406 16.15625 -25.894531 15.828125 -25.816406 C 15.828125 -25.734375 10.472656 -23.625 10.472656 -23.542969 C 7.46875 -22.40625 4.464844 -21.511719 0.648438 -21.269531 C -0.730469 -21.269531 -1.21875 -21.675781 -1.378906 -22.082031 C -1.460938 -22.324219 -1.625 -23.054688 -1.21875 -23.625 L -0.894531 -24.027344 C 0.164062 -25.164062 1.949219 -26.464844 2.679688 -26.546875 L 3.003906 -26.546875 L 2.597656 -26.140625 C 2.355469 -25.816406 2.191406 -25.570312 2.273438 -25.488281 L 2.355469 -25.246094 C 2.355469 -25.164062 2.515625 -25.164062 2.597656 -25.164062 C 2.921875 -25.246094 4.058594 -26.625 3.976562 -26.953125 C 3.976562 -27.195312 3.492188 -27.519531 3.164062 -27.4375 C 2.109375 -27.277344 0.242188 -26.464844 -1.21875 -25.003906 C -2.03125 -24.191406 -2.433594 -23.625 -2.433594 -22.730469 C -2.433594 -22 -1.949219 -20.945312 -0.894531 -20.699219 C -0.242188 -20.539062 0.0820312 -20.457031 1.300781 -20.539062 Z M 1.300781 -20.539062 "/></g></g></g><g fill="#fbf9f6" fill-opacity="1"><g transform="translate(167.703495, 189.37225)"><g><path d="M -3.570312 -16.722656 C -3.492188 -16.722656 -3.410156 -17.128906 -3.246094 -18.023438 C -3.085938 -19.484375 -2.597656 -20.539062 -1.378906 -22.324219 C -0.324219 -23.949219 2.839844 -28.007812 3.003906 -28.007812 C 3.085938 -28.089844 3.164062 -28.167969 3.164062 -28.25 C 3.328125 -28.414062 3.492188 -28.492188 3.652344 -28.574219 L 5.113281 -29.550781 C 5.84375 -29.953125 6.007812 -30.035156 6.65625 -30.523438 L 7.386719 -31.011719 C 7.46875 -31.011719 8.28125 -31.496094 8.765625 -31.902344 C 9.335938 -32.308594 10.878906 -33.285156 11.121094 -33.445312 L 11.933594 -34.015625 L 12.828125 -34.664062 L 13.882812 -35.476562 L 15.910156 -37.097656 C 17.128906 -37.992188 19.96875 -40.507812 20.132812 -41.238281 C 20.292969 -41.886719 19.808594 -42.214844 18.914062 -41.886719 C 18.023438 -41.644531 16.804688 -40.914062 16.15625 -40.425781 C 15.425781 -39.941406 14.449219 -39.453125 13.71875 -38.882812 C 11.609375 -37.34375 9.417969 -35.636719 7.304688 -33.769531 C 6.414062 -32.957031 4.546875 -31.171875 4.140625 -30.847656 L 2.515625 -29.222656 C 2.355469 -29.144531 2.273438 -29.144531 2.273438 -29.144531 C 2.191406 -29.222656 2.109375 -29.144531 2.109375 -29.144531 C 2.109375 -28.980469 1.21875 -28.738281 1.054688 -28.820312 C 0.972656 -28.898438 0.894531 -28.820312 0.894531 -28.738281 C 0.894531 -28.574219 1.300781 -28.167969 1.460938 -28.167969 L 1.625 -28.167969 C 1.378906 -27.925781 1.300781 -27.761719 1.300781 -27.683594 L 0.972656 -27.277344 C 0.730469 -27.03125 0.566406 -26.871094 0.566406 -26.789062 C 0.566406 -26.707031 0.566406 -26.625 0.488281 -26.625 C 0.40625 -26.625 0.164062 -26.300781 -0.164062 -25.894531 L -0.8125 -25.085938 C -0.894531 -25.085938 -0.894531 -24.921875 -0.894531 -24.839844 C -0.972656 -24.679688 -1.054688 -24.597656 -1.136719 -24.597656 L -1.378906 -24.355469 C -1.378906 -24.191406 -1.378906 -24.191406 -1.460938 -24.191406 C -1.542969 -24.191406 -1.625 -24.109375 -1.625 -24.027344 C -1.625 -23.867188 -1.703125 -23.785156 -1.785156 -23.785156 C -1.785156 -23.867188 -1.867188 -23.785156 -1.867188 -23.703125 C -1.867188 -23.542969 -2.355469 -22.8125 -2.761719 -22.242188 C -3.085938 -21.757812 -3.164062 -21.511719 -3.246094 -21.351562 C -3.246094 -21.1875 -3.328125 -21.023438 -3.410156 -20.78125 C -3.816406 -20.214844 -4.140625 -18.753906 -3.976562 -17.859375 C -3.898438 -16.964844 -3.816406 -16.804688 -3.570312 -16.722656 Z M 5.277344 -30.441406 C 5.03125 -30.359375 5.195312 -30.441406 5.84375 -31.171875 C 6.574219 -31.984375 10.714844 -35.554688 10.878906 -35.554688 L 13.800781 -37.910156 L 15.019531 -38.722656 L 15.667969 -39.289062 L 16.15625 -39.617188 L 17.453125 -40.425781 L 18.023438 -40.75 L 18.425781 -40.996094 L 18.589844 -41.078125 C 18.671875 -41.15625 18.753906 -41.15625 18.914062 -41.15625 C 18.996094 -41.238281 19.078125 -41.15625 19.078125 -40.996094 C 19.078125 -40.996094 19.078125 -40.914062 18.996094 -40.832031 L 18.832031 -40.671875 L 18.832031 -40.589844 L 18.589844 -40.425781 L 18.507812 -40.347656 L 18.347656 -40.101562 L 18.101562 -39.859375 L 16.964844 -38.804688 L 15.425781 -37.585938 C 14.773438 -37.019531 14.289062 -36.613281 14.207031 -36.613281 L 13.71875 -36.285156 C 13.070312 -35.71875 11.203125 -34.417969 10.878906 -34.175781 C 10.554688 -34.015625 9.578125 -33.363281 9.253906 -33.121094 C 8.765625 -32.714844 7.46875 -31.742188 7.144531 -31.578125 L 6.820312 -31.335938 Z M 5.277344 -30.441406 "/></g></g></g><g fill="#fbf9f6" fill-opacity="1"><g transform="translate(174.846735, 189.37225)"><g><path d="M -0.8125 -22.160156 C 0.0820312 -22.324219 0.648438 -22.488281 2.109375 -23.21875 L 5.765625 -24.839844 L 6.820312 -25.328125 C 6.898438 -25.410156 6.898438 -25.652344 6.738281 -25.734375 L 6.65625 -25.816406 L 6.414062 -25.816406 L 6.25 -25.734375 C 1.785156 -23.785156 -0.894531 -22.8125 -1.378906 -22.972656 C -1.542969 -23.054688 -1.542969 -23.136719 -1.300781 -23.378906 C -1.136719 -23.703125 -0.972656 -23.785156 -0.40625 -23.949219 C 0.488281 -24.191406 1.300781 -24.597656 2.679688 -25.570312 C 3.976562 -26.464844 4.546875 -26.953125 4.464844 -27.195312 C 4.300781 -27.683594 3.570312 -27.601562 2.273438 -27.113281 C 0.648438 -26.546875 -1.21875 -25.085938 -2.03125 -23.785156 C -2.433594 -23.136719 -2.515625 -22.890625 -2.355469 -22.566406 C -2.273438 -22 -2.109375 -22 -0.8125 -22.160156 Z M -0.164062 -24.839844 C -0.0820312 -25.085938 1.300781 -26.058594 1.867188 -26.222656 C 2.355469 -26.464844 3.164062 -26.789062 3.164062 -26.625 C 3.085938 -26.546875 1.867188 -25.734375 1.136719 -25.328125 C 0.242188 -24.839844 -0.324219 -24.679688 -0.164062 -24.839844 Z M -0.164062 -24.839844 "/></g></g></g><g fill="#fbf9f6" fill-opacity="1"><g transform="translate(181.340579, 189.37225)"><g><path d="M -3.085938 -18.265625 C -2.109375 -18.507812 -0.242188 -20.132812 0.0820312 -20.945312 C 0.242188 -21.1875 0.40625 -21.675781 0.488281 -22 C 0.566406 -22.40625 0.730469 -22.648438 0.972656 -22.8125 L 1.785156 -23.136719 C 2.433594 -23.460938 3.492188 -23.785156 4.546875 -24.109375 C 3.898438 -23.867188 6.007812 -24.515625 7.46875 -24.921875 C 8.117188 -25.085938 8.28125 -25.246094 8.035156 -25.488281 C 7.875 -25.652344 7.710938 -25.652344 7.226562 -25.488281 C 6.25 -25.328125 2.03125 -24.191406 1.136719 -23.625 C 0.566406 -23.378906 0.40625 -23.625 0.488281 -24.757812 C 0.648438 -25.816406 0.648438 -25.894531 1.054688 -25.976562 C 1.625 -26.140625 1.785156 -26.464844 1.460938 -26.871094 C 1.21875 -27.113281 0.972656 -27.03125 0.40625 -26.707031 C -0.324219 -26.300781 -0.40625 -25.976562 -0.40625 -24.433594 C -0.40625 -23.703125 -0.488281 -23.054688 -0.488281 -22.890625 C -0.566406 -22.8125 -0.894531 -22.648438 -1.21875 -22.488281 C -1.542969 -22.40625 -1.785156 -22.242188 -1.867188 -22.242188 L -2.761719 -21.59375 C -3.898438 -20.945312 -4.382812 -20.457031 -4.464844 -19.808594 C -4.464844 -19.320312 -4.464844 -19.160156 -4.222656 -18.914062 C -4.058594 -18.753906 -3.898438 -18.507812 -3.898438 -18.507812 C -3.898438 -18.265625 -3.410156 -18.101562 -3.085938 -18.265625 Z M -3.085938 -19.160156 C -3.410156 -19.160156 -3.734375 -19.484375 -3.734375 -19.808594 C -3.734375 -20.292969 -2.355469 -21.105469 -2.191406 -21.1875 L -1.378906 -21.675781 L -0.8125 -22 L -0.8125 -21.59375 C -0.894531 -21.105469 -1.054688 -20.863281 -1.949219 -19.96875 C -2.433594 -19.484375 -2.921875 -19.160156 -3.085938 -19.160156 Z M -3.085938 -19.160156 "/></g></g></g><g fill="#fbf9f6" fill-opacity="1"><g transform="translate(189.214368, 189.37225)"><g/></g></g><g fill="#fbf9f6" fill-opacity="1"><g transform="translate(221.683585, 189.37225)"><g><path d="M 24.027344 5.195312 C 24.921875 5.359375 28.574219 5.359375 29.222656 5.195312 L 30.605469 5.113281 C 31.578125 5.03125 34.175781 4.628906 34.582031 4.546875 L 37.585938 3.898438 C 37.75 3.816406 37.910156 3.816406 37.992188 3.816406 C 38.074219 3.898438 38.234375 3.816406 38.316406 3.734375 C 38.398438 3.652344 39.128906 3.410156 39.859375 3.246094 C 40.671875 3.003906 41.808594 2.679688 42.375 2.433594 L 43.917969 1.785156 C 45.054688 1.378906 47.8125 -0.0820312 48.949219 -0.972656 L 50.414062 -2.03125 L 51.710938 -2.921875 L 52.277344 -3.410156 L 55.851562 -6.65625 L 56.339844 -7.144531 L 58.609375 -9.335938 C 58.9375 -9.660156 59.34375 -10.066406 59.503906 -10.308594 C 59.667969 -10.554688 59.910156 -10.796875 59.992188 -10.878906 C 60.152344 -10.960938 60.640625 -11.445312 61.046875 -11.933594 L 61.859375 -12.988281 C 62.34375 -13.476562 63.886719 -15.261719 63.96875 -15.425781 C 64.132812 -15.667969 65.671875 -17.453125 66 -17.777344 L 66.648438 -18.589844 C 66.972656 -18.996094 67.214844 -19.320312 67.296875 -19.238281 L 67.460938 -19.484375 C 67.460938 -19.644531 67.539062 -19.726562 67.621094 -19.726562 C 67.785156 -19.808594 68.921875 -21.269531 69.976562 -22.8125 L 74.199219 -28.574219 L 75.496094 -30.199219 L 76.46875 -31.578125 L 77.605469 -33.203125 L 78.5 -34.5 L 80.53125 -37.261719 C 81.503906 -38.558594 81.910156 -39.128906 81.910156 -39.210938 L 84.589844 -43.023438 L 85.320312 -44.160156 C 86.699219 -46.351562 87.429688 -47.570312 88.484375 -49.03125 L 89.132812 -49.925781 L 89.621094 -50.738281 L 90.597656 -52.035156 C 91.164062 -52.765625 92.625 -54.390625 93.273438 -54.957031 C 93.925781 -55.445312 94.25 -56.011719 94.328125 -56.417969 C 94.328125 -56.824219 94.085938 -57.148438 93.925781 -57.070312 C 93.761719 -57.070312 92.867188 -56.5 92.949219 -56.5 C 93.03125 -56.5 91.894531 -55.121094 91.488281 -54.796875 L 91 -54.226562 C 90.921875 -54.144531 90.757812 -54.066406 90.675781 -54.066406 C 90.597656 -54.144531 90.597656 -54.066406 90.597656 -53.984375 C 90.597656 -53.984375 90.515625 -53.820312 90.351562 -53.820312 C 90.109375 -53.742188 89.945312 -53.660156 89.945312 -53.578125 C 89.945312 -53.496094 89.863281 -53.414062 89.785156 -53.414062 C 89.785156 -53.414062 89.539062 -53.335938 89.296875 -53.171875 C 88.808594 -52.847656 87.511719 -52.199219 87.429688 -52.199219 C 87.429688 -52.199219 87.105469 -52.035156 86.78125 -51.792969 C 86.457031 -51.628906 86.210938 -51.46875 86.132812 -51.546875 C 86.050781 -51.628906 85.96875 -51.546875 85.96875 -51.546875 C 85.96875 -51.46875 85.398438 -51.144531 84.75 -50.816406 L 82.722656 -49.761719 L 81.828125 -49.277344 C 80.773438 -48.871094 79.71875 -48.382812 79.554688 -48.21875 L 78.90625 -47.976562 C 78.664062 -47.894531 78.335938 -47.8125 78.257812 -47.734375 C 78.175781 -47.652344 77.769531 -47.488281 77.203125 -47.246094 L 72.25 -45.378906 L 71.601562 -45.054688 C 71.4375 -44.972656 70.949219 -44.730469 70.382812 -44.648438 C 69.894531 -44.484375 69.328125 -44.242188 69.082031 -44.082031 C 68.839844 -43.917969 68.515625 -43.835938 68.433594 -43.835938 C 68.351562 -43.835938 67.867188 -43.675781 67.214844 -43.429688 L 66.078125 -43.105469 L 61.941406 -41.644531 L 59.910156 -40.996094 C 59.097656 -40.671875 58.285156 -40.425781 58.207031 -40.507812 L 57.878906 -40.425781 C 57.71875 -40.347656 57.230469 -40.101562 56.664062 -40.019531 C 56.175781 -39.859375 55.6875 -39.695312 55.6875 -39.617188 C 55.609375 -39.617188 55.527344 -39.535156 55.363281 -39.617188 L 54.796875 -39.453125 L 53.253906 -38.882812 L 49.277344 -37.75 C 47.328125 -37.097656 42.132812 -35.800781 39.695312 -35.230469 L 33.527344 -33.851562 C 33.039062 -33.6875 31.902344 -33.527344 31.742188 -33.527344 L 31.089844 -33.363281 C 30.847656 -33.285156 30.199219 -33.203125 29.710938 -33.121094 L 28.414062 -32.957031 L 27.683594 -32.796875 C 26.953125 -32.632812 22.566406 -32.148438 21.511719 -32.148438 C 20.539062 -32.066406 18.996094 -32.066406 17.941406 -32.148438 L 16.886719 -32.148438 C 16.316406 -32.148438 16.074219 -32.226562 15.585938 -32.632812 C 15.34375 -32.796875 15.097656 -32.878906 14.855469 -32.957031 C 14.613281 -32.957031 14.53125 -32.878906 14.53125 -32.554688 C 14.53125 -32.390625 14.613281 -32.066406 14.773438 -31.820312 C 15.019531 -31.496094 15.097656 -31.417969 15.667969 -31.253906 C 16.398438 -31.171875 18.023438 -31.089844 18.425781 -31.089844 C 18.589844 -31.171875 19.238281 -31.171875 19.808594 -31.089844 L 21.023438 -31.089844 L 21.351562 -31.171875 L 21.835938 -31.171875 L 23.296875 -31.335938 C 23.949219 -31.335938 24.757812 -31.417969 25.085938 -31.496094 L 26.464844 -31.660156 L 27.761719 -31.902344 C 28.007812 -32.066406 28.332031 -32.066406 28.492188 -32.066406 L 29.628906 -32.226562 C 30.199219 -32.390625 30.6875 -32.472656 30.765625 -32.472656 C 30.847656 -32.472656 31.171875 -32.472656 31.417969 -32.554688 L 32.714844 -32.796875 C 33.121094 -32.878906 33.609375 -32.957031 33.6875 -33.039062 C 34.015625 -33.121094 37.261719 -33.933594 38.316406 -34.09375 L 40.914062 -34.746094 L 44.324219 -35.636719 C 45.460938 -35.960938 46.433594 -36.207031 46.515625 -36.207031 C 46.597656 -36.207031 46.757812 -36.285156 46.921875 -36.367188 C 47.082031 -36.449219 47.246094 -36.53125 47.410156 -36.53125 L 47.734375 -36.53125 C 47.8125 -36.613281 48.546875 -36.855469 49.4375 -37.097656 C 53.578125 -38.316406 54.390625 -38.558594 54.472656 -38.722656 L 54.714844 -38.722656 C 54.796875 -38.722656 55.363281 -38.882812 55.933594 -39.128906 L 57.230469 -39.453125 C 57.3125 -39.453125 57.554688 -39.535156 57.71875 -39.695312 C 57.878906 -39.777344 58.125 -39.859375 58.207031 -39.859375 C 58.367188 -39.859375 60.316406 -40.425781 60.640625 -40.589844 L 61.371094 -40.832031 C 62.265625 -41.15625 62.589844 -41.238281 62.671875 -41.320312 L 63.480469 -41.5625 L 64.375 -41.886719 C 66.078125 -42.457031 66.808594 -42.699219 66.808594 -42.78125 C 66.808594 -42.945312 68.675781 -43.59375 68.839844 -43.511719 C 68.921875 -43.511719 69.082031 -43.511719 69.082031 -43.675781 C 69.082031 -43.835938 70.707031 -44.484375 71.03125 -44.40625 C 71.113281 -44.40625 71.355469 -44.484375 71.601562 -44.648438 L 72.167969 -44.8125 C 72.25 -44.8125 72.410156 -44.890625 72.574219 -44.972656 C 72.738281 -45.054688 72.898438 -45.136719 72.898438 -45.054688 C 72.980469 -45.054688 73.0625 -45.054688 73.0625 -45.136719 C 73.140625 -45.136719 73.546875 -45.296875 74.035156 -45.460938 C 75.007812 -45.785156 75.660156 -46.109375 76.226562 -46.433594 C 76.46875 -46.515625 76.875 -46.679688 77.203125 -46.757812 C 77.605469 -46.921875 78.011719 -47.082031 78.175781 -47.246094 C 78.417969 -47.410156 78.582031 -47.410156 78.664062 -47.410156 C 78.664062 -47.328125 78.90625 -47.410156 79.148438 -47.570312 L 79.71875 -47.894531 L 79.960938 -47.8125 L 80.285156 -47.976562 C 80.609375 -48.21875 82.882812 -49.195312 82.964844 -49.195312 L 83.695312 -49.601562 C 84.101562 -49.84375 84.667969 -50.085938 85.074219 -50.25 C 85.398438 -50.414062 85.886719 -50.65625 86.132812 -50.816406 C 86.292969 -50.898438 86.617188 -51.0625 86.699219 -51.0625 C 86.863281 -51.0625 87.023438 -51.144531 87.023438 -51.144531 C 87.023438 -51.222656 87.347656 -51.386719 87.671875 -51.546875 C 88.078125 -51.710938 88.566406 -51.953125 88.808594 -52.117188 C 89.054688 -52.277344 89.296875 -52.441406 89.296875 -52.359375 C 89.378906 -52.359375 89.054688 -51.875 88.730469 -51.386719 L 87.671875 -49.925781 C 87.511719 -49.601562 87.265625 -49.277344 87.105469 -49.195312 C 86.941406 -49.113281 86.863281 -48.871094 86.78125 -48.789062 C 86.78125 -48.625 86.457031 -48.140625 86.132812 -47.652344 L 85.320312 -46.515625 C 85.15625 -46.191406 84.265625 -44.8125 83.859375 -44.242188 L 83.371094 -43.429688 L 82.722656 -42.457031 C 82.398438 -42.132812 82.234375 -41.726562 82.152344 -41.726562 L 81.910156 -41.320312 L 81.339844 -40.589844 C 81.179688 -40.347656 81.015625 -40.101562 81.015625 -40.019531 L 80.203125 -38.804688 L 78.175781 -36.042969 C 77.933594 -35.800781 77.769531 -35.476562 77.769531 -35.394531 C 77.6875 -35.3125 77.6875 -35.230469 77.605469 -35.230469 C 77.527344 -35.3125 77.445312 -35.230469 77.445312 -35.070312 C 77.445312 -34.988281 77.363281 -34.90625 77.28125 -34.988281 C 77.203125 -34.988281 77.203125 -34.90625 77.203125 -34.824219 C 77.203125 -34.746094 76.714844 -33.851562 76.550781 -33.851562 C 76.46875 -33.851562 76.46875 -33.769531 76.390625 -33.6875 C 76.390625 -33.527344 75.414062 -32.148438 75.253906 -32.066406 L 74.765625 -31.335938 L 74.359375 -30.765625 L 74.035156 -30.359375 C 73.792969 -30.117188 72.332031 -28.089844 72.332031 -28.007812 L 72.003906 -27.683594 C 71.84375 -27.519531 71.519531 -27.113281 71.355469 -26.789062 C 71.113281 -26.464844 70.871094 -26.222656 70.871094 -26.222656 C 70.789062 -26.300781 70.789062 -26.222656 70.789062 -26.140625 C 70.789062 -26.058594 70.789062 -25.894531 70.707031 -25.894531 C 70.625 -25.894531 70.542969 -25.734375 70.464844 -25.570312 C 70.464844 -25.488281 70.300781 -25.164062 70.136719 -25.003906 C 69.570312 -24.355469 68.515625 -22.890625 68.515625 -22.8125 C 68.597656 -22.730469 68.515625 -22.730469 68.433594 -22.730469 C 68.351562 -22.730469 68.273438 -22.648438 68.273438 -22.488281 C 68.273438 -22.40625 68.191406 -22.242188 68.109375 -22.324219 C 68.027344 -22.324219 67.945312 -22.160156 67.867188 -22 C 67.785156 -21.917969 67.703125 -21.757812 67.621094 -21.757812 C 67.539062 -21.757812 67.539062 -21.675781 67.460938 -21.59375 C 67.460938 -21.511719 67.214844 -21.1875 66.972656 -20.863281 C 66.648438 -20.621094 66.078125 -19.890625 65.59375 -19.238281 C 65.1875 -18.671875 64.699219 -18.183594 64.699219 -18.183594 C 64.617188 -18.183594 64.539062 -18.101562 64.539062 -18.023438 C 64.539062 -17.859375 64.457031 -17.777344 64.375 -17.695312 C 64.210938 -17.617188 63.886719 -17.128906 62.507812 -15.503906 L 61.207031 -13.960938 L 60.476562 -13.152344 L 59.503906 -11.933594 C 59.421875 -11.851562 59.34375 -11.769531 59.261719 -11.769531 C 59.179688 -11.769531 59.097656 -11.769531 59.097656 -11.609375 C 59.097656 -11.527344 59.015625 -11.445312 58.9375 -11.445312 C 58.9375 -11.445312 58.773438 -11.363281 58.691406 -11.203125 C 58.207031 -10.554688 57.148438 -9.496094 57.070312 -9.578125 C 57.070312 -9.578125 56.988281 -9.496094 56.988281 -9.417969 C 56.90625 -9.253906 56.742188 -9.011719 56.582031 -8.847656 L 56.257812 -8.523438 C 56.257812 -8.441406 56.175781 -8.363281 55.527344 -7.875 C 55.28125 -7.710938 55.039062 -7.46875 55.039062 -7.386719 C 55.039062 -7.304688 54.226562 -6.496094 53.742188 -6.167969 C 53.578125 -6.089844 53.414062 -5.925781 53.414062 -5.84375 C 53.414062 -5.765625 51.875 -4.382812 51.46875 -4.058594 L 50.738281 -3.492188 C 50.492188 -3.164062 49.925781 -2.761719 49.519531 -2.515625 L 48.382812 -1.703125 C 47.8125 -1.136719 46.757812 -0.488281 45.867188 0 L 45.054688 0.488281 C 44.730469 0.648438 40.996094 2.273438 40.832031 2.191406 L 40.265625 2.433594 C 39.695312 2.597656 38.074219 3.164062 37.828125 3.164062 L 36.773438 3.328125 L 35.3125 3.652344 L 33.769531 3.976562 L 32.390625 4.300781 C 31.253906 4.464844 27.4375 4.871094 26.464844 4.789062 L 25.246094 4.789062 C 23.136719 4.871094 20.945312 4.382812 18.507812 3.410156 L 16.398438 2.515625 C 15.503906 2.191406 14.695312 1.785156 14.449219 1.625 L 13.800781 1.300781 C 12.828125 1.136719 10.960938 -0.242188 10.148438 -1.378906 L 9.496094 -2.273438 C 9.09375 -2.679688 8.6875 -4.300781 8.6875 -5.113281 C 8.6875 -6.332031 9.09375 -7.710938 9.902344 -8.523438 C 9.984375 -8.6875 10.066406 -8.847656 10.066406 -8.929688 C 10.066406 -9.171875 12.175781 -11.445312 12.746094 -11.769531 C 15.097656 -13.476562 16.558594 -14.367188 17.535156 -14.773438 L 18.183594 -15.097656 C 18.265625 -15.179688 20.945312 -16.234375 21.675781 -16.480469 L 23.136719 -16.964844 C 24.109375 -17.371094 27.925781 -18.347656 29.222656 -18.507812 L 31.089844 -18.914062 L 32.066406 -19.078125 C 33.203125 -19.320312 33.363281 -19.402344 33.769531 -19.402344 L 34.417969 -19.484375 C 35.476562 -19.726562 36.285156 -19.808594 36.367188 -19.808594 L 37.261719 -19.96875 C 37.667969 -20.050781 38.234375 -20.132812 38.480469 -20.132812 C 38.882812 -20.132812 40.183594 -20.292969 40.589844 -20.375 L 41.15625 -20.375 C 41.320312 -20.375 41.5625 -20.457031 41.644531 -20.457031 C 41.886719 -20.621094 42.863281 -20.699219 43.269531 -20.699219 C 43.511719 -20.699219 44.160156 -20.78125 44.730469 -20.863281 C 45.785156 -21.023438 47.488281 -21.023438 50.007812 -21.023438 C 51.953125 -21.023438 52.117188 -20.945312 52.117188 -20.78125 C 52.035156 -20.539062 52.441406 -20.375 52.765625 -20.457031 C 53.335938 -20.78125 53.496094 -20.863281 53.496094 -21.105469 C 53.660156 -21.675781 53.089844 -21.757812 48.625 -21.675781 C 45.785156 -21.675781 42.78125 -21.351562 38.152344 -20.621094 L 36.613281 -20.457031 C 36.367188 -20.457031 35.230469 -20.214844 35.070312 -20.132812 C 34.988281 -20.132812 34.5 -20.050781 34.09375 -20.050781 L 33.039062 -19.890625 C 32.878906 -19.808594 32.148438 -19.726562 31.902344 -19.808594 C 31.820312 -19.808594 31.660156 -19.726562 31.660156 -19.726562 C 31.496094 -19.5625 31.089844 -19.484375 29.953125 -19.320312 C 29.144531 -19.160156 28.738281 -19.078125 26.300781 -18.425781 L 24.757812 -18.101562 C 24.355469 -18.023438 23.949219 -17.859375 23.867188 -17.859375 C 23.785156 -17.777344 23.136719 -17.535156 22.40625 -17.371094 C 21.757812 -17.128906 20.621094 -16.804688 19.96875 -16.480469 L 17.535156 -15.503906 C 16.722656 -15.179688 15.585938 -14.53125 14.449219 -13.71875 C 12.257812 -12.257812 11.933594 -12.09375 10.714844 -10.632812 C 8.363281 -8.117188 7.628906 -5.519531 8.523438 -3.164062 L 8.765625 -2.355469 L 8.765625 -2.273438 L 9.417969 -1.460938 C 10.632812 0.164062 11.609375 0.894531 14.042969 2.03125 L 15.019531 2.515625 L 18.265625 3.816406 C 19.890625 4.382812 23.054688 5.277344 23.378906 5.113281 C 23.460938 5.113281 23.785156 5.113281 24.027344 5.195312 Z M 24.027344 5.195312 "/></g></g></g><g fill="#fbf9f6" fill-opacity="1"><g transform="translate(300.583789, 189.37225)"><g><path d="M -0.8125 -22.160156 C 0.0820312 -22.324219 0.648438 -22.488281 2.109375 -23.21875 L 5.765625 -24.839844 L 6.820312 -25.328125 C 6.898438 -25.410156 6.898438 -25.652344 6.738281 -25.734375 L 6.65625 -25.816406 L 6.414062 -25.816406 L 6.25 -25.734375 C 1.785156 -23.785156 -0.894531 -22.8125 -1.378906 -22.972656 C -1.542969 -23.054688 -1.542969 -23.136719 -1.300781 -23.378906 C -1.136719 -23.703125 -0.972656 -23.785156 -0.40625 -23.949219 C 0.488281 -24.191406 1.300781 -24.597656 2.679688 -25.570312 C 3.976562 -26.464844 4.546875 -26.953125 4.464844 -27.195312 C 4.300781 -27.683594 3.570312 -27.601562 2.273438 -27.113281 C 0.648438 -26.546875 -1.21875 -25.085938 -2.03125 -23.785156 C -2.433594 -23.136719 -2.515625 -22.890625 -2.355469 -22.566406 C -2.273438 -22 -2.109375 -22 -0.8125 -22.160156 Z M -0.164062 -24.839844 C -0.0820312 -25.085938 1.300781 -26.058594 1.867188 -26.222656 C 2.355469 -26.464844 3.164062 -26.789062 3.164062 -26.625 C 3.085938 -26.546875 1.867188 -25.734375 1.136719 -25.328125 C 0.242188 -24.839844 -0.324219 -24.679688 -0.164062 -24.839844 Z M -0.164062 -24.839844 "/></g></g></g><g fill="#fbf9f6" fill-opacity="1"><g transform="translate(307.077633, 189.37225)"><g><path d="M 1.785156 -22.160156 C 2.109375 -22.082031 2.433594 -22.082031 2.761719 -22.160156 L 3.003906 -22.160156 C 3.003906 -22.160156 4.464844 -22.488281 6.007812 -23.21875 L 10.632812 -25.328125 C 10.796875 -25.410156 10.796875 -25.652344 10.632812 -25.734375 L 10.554688 -25.816406 L 10.308594 -25.816406 L 10.148438 -25.734375 C 6.574219 -24.191406 4.140625 -23.21875 3.085938 -22.972656 C 3.085938 -22.972656 2.03125 -22.648438 1.949219 -22.972656 C 1.625 -23.703125 2.191406 -24.597656 2.597656 -25.085938 C 2.921875 -25.488281 3.734375 -26.464844 2.761719 -26.464844 C 2.597656 -26.464844 2.355469 -26.546875 2.355469 -26.625 C 2.273438 -26.953125 2.03125 -26.871094 0.648438 -26.140625 C -0.566406 -25.488281 -2.109375 -24.515625 -3.085938 -23.703125 C -3.492188 -23.378906 -3.652344 -23.21875 -3.652344 -22.972656 C -3.652344 -22.566406 -3.410156 -22.488281 -2.921875 -22.488281 C -2.515625 -22.488281 -0.894531 -23.296875 -0.242188 -23.785156 C 0.40625 -24.355469 1.460938 -24.921875 1.460938 -24.839844 L 1.21875 -24.273438 C 1.054688 -24.027344 0.972656 -23.703125 0.972656 -23.460938 C 0.894531 -23.136719 0.894531 -22.890625 1.136719 -22.566406 C 1.300781 -22.324219 1.460938 -22.160156 1.785156 -22.160156 Z M -2.761719 -23.21875 L -2.273438 -23.542969 C -1.785156 -24.027344 -0.488281 -24.921875 0.566406 -25.410156 C 1.378906 -25.894531 1.542969 -25.894531 1.542969 -25.734375 C 1.542969 -25.652344 1.300781 -25.488281 1.054688 -25.410156 C 0.40625 -25.085938 0.0820312 -24.839844 -0.0820312 -24.679688 C -0.242188 -24.515625 -1.625 -23.703125 -2.273438 -23.378906 Z M -2.761719 -23.21875 "/></g></g></g><g fill="#fbf9f6" fill-opacity="1"><g transform="translate(317.467782, 189.37225)"><g><path d="M 36.613281 -38.480469 C 36.207031 -38.640625 35.554688 -38.722656 33.6875 -38.882812 C 31.984375 -39.046875 19.402344 -39.535156 17.859375 -39.535156 L 15.585938 -39.617188 L 14.042969 -39.617188 C 14.289062 -39.941406 15.019531 -40.75 15.503906 -41.15625 C 15.828125 -41.402344 16.15625 -41.726562 16.480469 -42.132812 C 16.804688 -42.539062 17.941406 -43.59375 18.507812 -44.082031 L 19.320312 -44.730469 L 19.644531 -45.136719 C 19.890625 -45.378906 19.890625 -45.460938 19.726562 -45.703125 C 19.644531 -45.867188 19.484375 -45.949219 19.402344 -45.949219 C 19.238281 -45.949219 18.265625 -45.214844 18.183594 -44.972656 L 17.453125 -44.324219 C 16.558594 -43.59375 16.398438 -43.511719 16.234375 -43.269531 C 16.074219 -43.105469 13.960938 -41.078125 13.636719 -40.832031 L 13.394531 -40.589844 L 12.746094 -39.859375 L 12.421875 -39.535156 L 0.972656 -39.289062 L -0.8125 -39.128906 C -2.191406 -39.046875 -6.089844 -38.722656 -6.738281 -38.558594 C -7.386719 -38.398438 -7.710938 -38.074219 -7.46875 -37.828125 C -7.386719 -37.667969 -5.765625 -37.828125 -4.628906 -38.074219 C -4.382812 -38.152344 -2.433594 -38.398438 -0.488281 -38.480469 L 1.542969 -38.640625 L 3.734375 -38.722656 L 6.414062 -38.882812 C 7.144531 -38.964844 9.902344 -38.964844 11.691406 -38.964844 C 11.609375 -38.804688 11.445312 -38.722656 11.363281 -38.558594 L 11.121094 -38.398438 L 10.878906 -38.074219 L 9.902344 -37.019531 C 8.765625 -35.800781 5.195312 -31.902344 4.464844 -30.847656 C 4.464844 -30.847656 3.164062 -29.304688 3.164062 -29.386719 C 3.164062 -29.304688 2.839844 -28.980469 2.515625 -28.65625 C 2.109375 -28.25 1.460938 -27.519531 -0.242188 -25.488281 L -0.894531 -24.757812 L -1.542969 -23.949219 C -1.703125 -23.703125 -1.785156 -23.542969 -1.867188 -23.542969 C -2.03125 -23.542969 -2.433594 -23.054688 -3.734375 -21.351562 C -4.222656 -20.78125 -4.628906 -20.292969 -4.789062 -20.214844 C -4.871094 -20.050781 -5.683594 -19.078125 -6.574219 -18.023438 L -8.605469 -15.503906 L -11.933594 -11.039062 C -12.746094 -9.902344 -13.230469 -9.253906 -13.394531 -9.335938 L -13.394531 -9.171875 C -13.394531 -9.09375 -13.394531 -8.929688 -13.476562 -8.765625 C -13.558594 -8.523438 -13.636719 -8.441406 -13.71875 -8.523438 C -13.71875 -8.441406 -13.800781 -8.363281 -13.800781 -8.363281 C -13.800781 -8.199219 -13.800781 -8.117188 -13.882812 -8.117188 C -13.882812 -8.199219 -14.125 -7.710938 -14.289062 -7.144531 C -14.613281 -6.332031 -14.695312 -6.007812 -14.613281 -5.601562 C -14.449219 -5.113281 -14.367188 -5.03125 -14.125 -4.953125 C -13.800781 -4.953125 -13.636719 -4.953125 -13.558594 -5.113281 C -13.394531 -5.359375 -13.394531 -5.359375 -13.71875 -5.4375 C -14.042969 -5.4375 -14.042969 -5.519531 -14.042969 -5.84375 C -13.960938 -6.25 -13.3125 -7.628906 -12.746094 -8.523438 C -11.203125 -10.796875 -7.144531 -15.992188 -4.546875 -18.996094 L -3.246094 -20.539062 L -0.566406 -23.625 L 1.625 -26.058594 L 2.355469 -26.953125 L 3.328125 -28.007812 C 4.058594 -28.820312 4.707031 -29.628906 6.089844 -31.253906 C 6.574219 -31.820312 7.144531 -32.390625 7.386719 -32.632812 C 7.628906 -32.878906 8.035156 -33.363281 8.28125 -33.6875 L 9.660156 -35.152344 C 10.554688 -36.125 11.121094 -36.613281 11.609375 -37.261719 L 12.339844 -37.992188 C 12.582031 -38.316406 12.828125 -38.480469 12.988281 -38.722656 L 13.394531 -38.964844 C 14.042969 -39.046875 14.53125 -38.964844 14.773438 -38.964844 L 15.097656 -38.964844 C 19.808594 -38.882812 31.089844 -38.558594 32.714844 -38.316406 C 33.203125 -38.152344 34.015625 -38.152344 34.417969 -38.074219 C 35.230469 -38.074219 35.230469 -38.074219 35.070312 -37.75 C 34.90625 -37.585938 34.988281 -37.421875 35.070312 -37.34375 C 35.230469 -37.179688 35.3125 -37.097656 35.394531 -37.179688 L 36.207031 -37.503906 C 37.097656 -37.910156 37.179688 -38.152344 36.613281 -38.480469 Z M 36.613281 -38.480469 "/></g></g></g><g fill="#fbf9f6" fill-opacity="1"><g transform="translate(324.367489, 189.37225)"><g><path d="M -3.085938 -18.265625 C -2.109375 -18.507812 -0.242188 -20.132812 0.0820312 -20.945312 C 0.242188 -21.1875 0.40625 -21.675781 0.488281 -22 C 0.566406 -22.40625 0.730469 -22.648438 0.972656 -22.8125 L 1.785156 -23.136719 C 2.433594 -23.460938 3.492188 -23.785156 4.546875 -24.109375 C 3.898438 -23.867188 6.007812 -24.515625 7.46875 -24.921875 C 8.117188 -25.085938 8.28125 -25.246094 8.035156 -25.488281 C 7.875 -25.652344 7.710938 -25.652344 7.226562 -25.488281 C 6.25 -25.328125 2.03125 -24.191406 1.136719 -23.625 C 0.566406 -23.378906 0.40625 -23.625 0.488281 -24.757812 C 0.648438 -25.816406 0.648438 -25.894531 1.054688 -25.976562 C 1.625 -26.140625 1.785156 -26.464844 1.460938 -26.871094 C 1.21875 -27.113281 0.972656 -27.03125 0.40625 -26.707031 C -0.324219 -26.300781 -0.40625 -25.976562 -0.40625 -24.433594 C -0.40625 -23.703125 -0.488281 -23.054688 -0.488281 -22.890625 C -0.566406 -22.8125 -0.894531 -22.648438 -1.21875 -22.488281 C -1.542969 -22.40625 -1.785156 -22.242188 -1.867188 -22.242188 L -2.761719 -21.59375 C -3.898438 -20.945312 -4.382812 -20.457031 -4.464844 -19.808594 C -4.464844 -19.320312 -4.464844 -19.160156 -4.222656 -18.914062 C -4.058594 -18.753906 -3.898438 -18.507812 -3.898438 -18.507812 C -3.898438 -18.265625 -3.410156 -18.101562 -3.085938 -18.265625 Z M -3.085938 -19.160156 C -3.410156 -19.160156 -3.734375 -19.484375 -3.734375 -19.808594 C -3.734375 -20.292969 -2.355469 -21.105469 -2.191406 -21.1875 L -1.378906 -21.675781 L -0.8125 -22 L -0.8125 -21.59375 C -0.894531 -21.105469 -1.054688 -20.863281 -1.949219 -19.96875 C -2.433594 -19.484375 -2.921875 -19.160156 -3.085938 -19.160156 Z M -3.085938 -19.160156 "/></g></g></g></svg>