<svg xmlns="http://www.w3.org/2000/svg" xmlns:xlink="http://www.w3.org/1999/xlink" width="100" zoomAndPan="magnify" viewBox="0 0 75 74.999997" height="100" preserveAspectRatio="xMidYMid meet" version="1.0"><defs><clipPath id="0689e95054"><path d="M 12 1.5 L 62 1.5 L 62 60 L 12 60 Z M 12 1.5 " clip-rule="nonzero"/></clipPath><clipPath id="51670091a7"><path d="M 0 55 L 75 55 L 75 73.5 L 0 73.5 Z M 0 55 " clip-rule="nonzero"/></clipPath></defs><path fill="#b0c1d4" d="M 37.789062 2.113281 C 28.253906 2.113281 17.660156 5.679688 15.433594 17.34375 C 15.195312 18.585938 16.0625 19.222656 16.882812 19.402344 L 26.5625 19.808594 C 27.472656 19.757812 28.199219 19.046875 28.375 18.152344 C 29.207031 14.132812 32.609375 12.925781 36.425781 12.925781 C 38.488281 12.925781 40.824219 13.367188 42.042969 15.195312 C 43.453125 17.234375 43.640625 20.003906 43.640625 22.367188 L 43.640625 23.707031 C 37.832031 24.351562 29.832031 24.746094 24.398438 27.113281 C 18.121094 29.796875 13.171875 35.277344 13.171875 43.328125 C 13.171875 53.632812 20.304688 59.125 28.742188 59.125 C 35.867188 59.125 39.710938 57.121094 45.210938 51.574219 C 47.027344 54.179688 47.6875 55.175781 51.015625 57.917969 C 51.765625 58.3125 52.707031 58.242188 53.371094 57.652344 C 53.371094 57.652344 58.714844 53.101562 60.757812 51.398438 C 61.570312 50.734375 61.394531 49.699219 60.757812 48.792969 C 58.925781 46.289062 57.40625 44.210938 57.40625 39.5625 L 57.40625 24.148438 C 57.40625 17.601562 57.78125 11.542969 52.90625 7.035156 C 49.054688 3.382812 42.660156 2.113281 37.789062 2.113281 Z M 40.503906 31.605469 C 41.410156 31.546875 42.734375 31.605469 43.644531 31.605469 L 43.644531 33.824219 C 43.644531 37.691406 43.375 40.871094 41.40625 44.308594 C 39.8125 47.097656 37.253906 49.296875 34.441406 49.296875 C 30.59375 49.296875 27.917969 45.910156 27.917969 41.617188 C 27.917969 34.230469 34.179688 32.019531 40.503906 31.605469 Z M 40.503906 31.605469 " fill-opacity="1" fill-rule="nonzero"/><g clip-path="url(#0689e95054)"><path fill="#66798f" d="M 28.742188 59.617188 C 20.746094 59.617188 12.679688 54.578125 12.679688 43.328125 C 12.679688 35.867188 16.882812 29.792969 24.207031 26.660156 C 28.765625 24.675781 34.949219 24.074219 40.402344 23.542969 C 41.355469 23.449219 42.277344 23.359375 43.152344 23.265625 L 43.152344 22.367188 C 43.152344 20.039062 42.972656 17.402344 41.640625 15.472656 C 40.726562 14.109375 38.972656 13.417969 36.429688 13.417969 C 32.070312 13.417969 29.523438 15.042969 28.855469 18.25 C 28.632812 19.394531 27.699219 20.238281 26.589844 20.296875 L 16.863281 19.894531 C 15.664062 19.636719 14.667969 18.726562 14.949219 17.25 C 17.644531 3.144531 31.820312 1.621094 37.789062 1.621094 C 40.164062 1.621094 48.296875 1.988281 53.242188 6.679688 C 57.945312 11.03125 57.917969 16.769531 57.894531 22.847656 L 57.894531 39.5625 C 57.894531 44.054688 59.332031 46.019531 61.152344 48.503906 C 62.039062 49.761719 62.003906 51.015625 61.066406 51.777344 C 59.03125 53.476562 53.6875 58.023438 53.6875 58.023438 C 53.234375 58.429688 52.636719 58.65625 52.011719 58.65625 C 51.585938 58.65625 51.164062 58.550781 50.785156 58.351562 L 50.703125 58.296875 C 47.535156 55.6875 46.746094 54.628906 45.144531 52.335938 C 39.519531 57.902344 35.613281 59.617188 28.742188 59.617188 Z M 36.429688 12.433594 C 39.324219 12.433594 41.351562 13.269531 42.453125 14.921875 C 43.933594 17.066406 44.136719 19.886719 44.136719 22.367188 L 44.136719 24.144531 L 43.699219 24.195312 C 42.6875 24.308594 41.613281 24.414062 40.5 24.519531 C 35.117188 25.042969 29.015625 25.640625 24.59375 27.5625 C 17.648438 30.535156 13.664062 36.28125 13.664062 43.328125 C 13.664062 53.902344 21.234375 58.632812 28.742188 58.632812 C 35.464844 58.632812 39.234375 56.902344 44.863281 51.226562 L 45.277344 50.808594 L 45.746094 51.484375 C 47.425781 53.894531 48.125 54.894531 51.285156 57.503906 C 51.511719 57.613281 51.761719 57.671875 52.011719 57.671875 C 52.394531 57.671875 52.761719 57.535156 53.042969 57.285156 C 53.050781 57.277344 58.398438 52.726562 60.441406 51.019531 C 61.175781 50.417969 60.625 49.460938 60.355469 49.078125 C 58.511719 46.558594 56.914062 44.375 56.914062 39.5625 L 56.917969 22.839844 C 56.941406 16.734375 56.960938 11.457031 52.570312 7.398438 C 47.882812 2.949219 40.074219 2.605469 37.789062 2.605469 C 32.066406 2.605469 18.472656 4.050781 15.917969 17.433594 C 15.707031 18.519531 16.597656 18.835938 16.992188 18.921875 L 26.585938 19.316406 C 27.199219 19.28125 27.753906 18.761719 27.894531 18.058594 C 28.65625 14.375 31.609375 12.433594 36.429688 12.433594 Z M 34.441406 49.785156 C 30.441406 49.785156 27.425781 46.273438 27.425781 41.617188 C 27.425781 35.257812 31.816406 31.679688 40.472656 31.117188 C 41.101562 31.074219 43.359375 31.113281 43.644531 31.113281 L 44.136719 31.113281 L 44.136719 33.824219 C 44.136719 38.066406 43.761719 41.183594 41.832031 44.550781 C 39.960938 47.828125 37.195312 49.785156 34.441406 49.785156 Z M 41.519531 32.070312 C 41.164062 32.070312 40.828125 32.078125 40.535156 32.097656 C 32.375 32.628906 28.40625 35.789062 28.40625 41.617188 C 28.40625 45.78125 30.945312 48.804688 34.441406 48.804688 C 36.839844 48.804688 39.285156 47.03125 40.980469 44.0625 C 42.800781 40.886719 43.15625 37.902344 43.152344 33.824219 L 43.152344 32.09375 C 42.996094 32.089844 42.835938 32.089844 42.667969 32.085938 C 42.292969 32.078125 41.898438 32.070312 41.519531 32.070312 Z M 41.519531 32.070312 " fill-opacity="1" fill-rule="nonzero"/></g><path fill="#ffeea3" d="M 68.6875 56.175781 C 66.109375 56.214844 63.089844 57.078125 60.777344 58.679688 C 60.070312 59.175781 60.371094 59.890625 61.15625 59.792969 C 63.710938 59.492188 68.269531 58.269531 70.046875 60.046875 C 71.078125 61.359375 69.203125 66.738281 68.230469 69.148438 C 67.9375 69.871094 68.578125 70.15625 69.238281 69.601562 C 73.566406 66.019531 74.976562 58.679688 73.757812 57.457031 C 73.320312 56.925781 71.269531 56.140625 68.6875 56.175781 Z M 1.03125 58.105469 C 0.492188 58.175781 0.28125 58.589844 0.851562 59.097656 C 10.46875 67.695312 23.027344 72.886719 37.140625 72.886719 C 47.210938 72.886719 58.542969 69.867188 66.609375 63.972656 C 67.941406 62.996094 67.214844 61.542969 65.847656 62.121094 C 56.804688 65.917969 46.683594 67.085938 37.742188 67.085938 C 24.484375 67.085938 12.050781 64.265625 1.675781 58.289062 C 1.449219 58.15625 1.207031 58.082031 1.03125 58.105469 Z M 1.03125 58.105469 " fill-opacity="1" fill-rule="nonzero"/><g clip-path="url(#51670091a7)"><path fill="#ba9b48" d="M 37.140625 73.378906 C 23.367188 73.378906 10.703125 68.566406 0.523438 59.464844 C -0.0429688 58.960938 -0.0117188 58.507812 0.0585938 58.285156 C 0.167969 57.925781 0.507812 57.679688 0.964844 57.621094 L 1.097656 57.609375 C 1.410156 57.609375 1.71875 57.746094 1.917969 57.859375 C 11.726562 63.511719 24.050781 66.59375 37.742188 66.59375 C 48.574219 66.59375 58.027344 64.871094 65.660156 61.667969 C 66.566406 61.28125 67.488281 61.625 67.738281 62.390625 C 67.914062 62.921875 67.785156 63.71875 66.898438 64.371094 C 59.179688 70.011719 48.054688 73.378906 37.140625 73.378906 Z M 1.050781 58.601562 C 1.078125 58.636719 1.121094 58.679688 1.175781 58.734375 C 11.175781 67.671875 23.613281 72.394531 37.140625 72.394531 C 47.855469 72.394531 58.761719 69.097656 66.320312 63.574219 C 66.75 63.261719 66.871094 62.90625 66.804688 62.695312 C 66.742188 62.507812 66.550781 62.480469 66.441406 62.480469 C 66.320312 62.480469 66.1875 62.511719 66.039062 62.570312 C 58.289062 65.828125 48.707031 67.574219 37.742188 67.574219 C 23.878906 67.574219 11.386719 64.449219 1.433594 58.714844 C 1.265625 58.621094 1.136719 58.59375 1.097656 58.59375 C 1.082031 58.59375 1.066406 58.597656 1.050781 58.601562 Z M 68.574219 70.386719 C 68.257812 70.386719 67.984375 70.246094 67.820312 70.003906 C 67.710938 69.84375 67.5625 69.496094 67.777344 68.960938 C 69.476562 64.746094 70.269531 61.125 69.664062 60.351562 C 69.183594 59.878906 68.210938 59.597656 66.828125 59.597656 C 65.519531 59.597656 64.09375 59.855469 62.792969 60.054688 C 62.222656 60.144531 61.6875 60.226562 61.214844 60.28125 C 60.578125 60.359375 60.082031 60.066406 59.929688 59.582031 C 59.816406 59.222656 59.90625 58.6875 60.496094 58.277344 C 62.777344 56.691406 65.835938 55.722656 68.679688 55.683594 L 68.960938 55.683594 C 71.472656 55.683594 73.554688 56.441406 74.136719 57.140625 C 74.53125 57.535156 74.605469 58.347656 74.605469 59.519531 C 74.605469 62.664062 72.675781 67.398438 69.554688 69.980469 C 69.242188 70.242188 68.894531 70.386719 68.574219 70.386719 Z M 66.828125 58.632812 C 68.484375 58.632812 69.683594 58.988281 70.398438 59.699219 C 71.699219 61.347656 69.636719 66.984375 68.6875 69.332031 C 68.683594 69.347656 68.675781 69.367188 68.671875 69.378906 C 68.738281 69.355469 68.828125 69.308594 68.925781 69.222656 C 71.828125 66.820312 73.542969 62.40625 73.679688 59.472656 C 73.726562 58.488281 73.5625 57.957031 73.410156 57.804688 C 73.117188 57.457031 71.390625 56.664062 68.863281 56.664062 L 68.695312 56.667969 C 66.078125 56.707031 63.152344 57.632812 61.058594 59.085938 C 60.90625 59.191406 60.871094 59.28125 60.871094 59.300781 C 60.871094 59.285156 60.921875 59.3125 61.019531 59.3125 C 61.558594 59.25 62.082031 59.171875 62.644531 59.085938 C 63.980469 58.878906 65.445312 58.632812 66.828125 58.632812 Z M 66.828125 58.632812 " fill-opacity="1" fill-rule="nonzero"/></g></svg>