<svg xmlns="http://www.w3.org/2000/svg" xmlns:xlink="http://www.w3.org/1999/xlink" width="100" zoomAndPan="magnify" viewBox="0 0 75 74.999997" height="100" preserveAspectRatio="xMidYMid meet" version="1.0"><path fill="#f3f2f2" d="M 0 37.5 C 0 16.792969 16.792969 0 37.5 0 C 58.207031 0 75 16.792969 75 37.5 C 75 58.207031 58.207031 75 37.5 75 C 16.792969 75 0 58.207031 0 37.5 Z M 0 37.5 " fill-opacity="1" fill-rule="nonzero"/><path fill="#ee3b3f" d="M 16.445312 31.046875 C 9.128906 31.046875 8.855469 36.730469 8.886719 38.210938 C 8.886719 38.210938 8.523438 44.859375 16.261719 44.859375 C 22.914062 44.859375 23.230469 40.6875 23.230469 40.6875 L 20.179688 40.6875 C 20.179688 40.6875 19.589844 42.988281 16.277344 42.925781 C 12.03125 42.851562 11.863281 38.722656 11.863281 38.722656 L 23.640625 38.722656 C 23.640625 38.738281 24.53125 31.046875 16.445312 31.046875 M 11.957031 36.714844 C 11.957031 36.714844 12.167969 32.996094 16.371094 32.980469 C 20.554688 32.980469 20.554688 36.714844 20.554688 36.714844 Z M 11.957031 36.714844 " fill-opacity="1" fill-rule="nonzero"/><path fill="#0468b2" d="M 31.816406 31.046875 C 28.144531 31.03125 26.558594 33.222656 26.558594 33.222656 L 26.558594 25.875 L 23.609375 25.875 L 23.65625 41.414062 C 23.65625 41.414062 23.640625 43.230469 23.535156 44.421875 L 26.390625 44.421875 L 26.511719 42.683594 C 26.511719 42.683594 27.839844 44.875 31.742188 44.875 C 35.640625 44.875 38.722656 42.472656 38.800781 38.015625 C 38.90625 33.554688 35.503906 31.0625 31.816406 31.046875 M 31.152344 42.882812 C 26.511719 42.941406 26.585938 37.953125 26.585938 37.953125 C 26.585938 37.953125 26.421875 33.160156 31.152344 33.042969 C 35.882812 32.921875 35.730469 38.058594 35.730469 38.058594 C 35.730469 38.058594 35.792969 42.820312 31.152344 42.882812 " fill-opacity="1" fill-rule="nonzero"/><path fill="#f7ab1b" d="M 52.433594 41.339844 C 52.433594 39.328125 52.492188 37.53125 52.433594 36.277344 C 52.359375 34.808594 52.492188 31.273438 46.144531 31 C 46.144531 31 40.070312 30.441406 39.433594 34.976562 L 42.546875 34.976562 C 42.546875 34.976562 42.789062 32.90625 45.949219 32.964844 C 48.941406 33.027344 49.484375 34.492188 49.472656 36.289062 C 49.472656 36.289062 46.917969 36.304688 46.054688 36.304688 C 44.511719 36.304688 39.132812 36.488281 38.617188 39.765625 C 38.015625 43.667969 41.503906 44.890625 44.226562 44.875 C 46.945312 44.859375 48.503906 44.042969 49.667969 42.578125 L 49.789062 44.390625 L 52.492188 44.378906 C 52.492188 44.378906 52.433594 43.347656 52.433594 41.339844 M 44.738281 42.988281 C 44.738281 42.988281 41.792969 42.988281 41.609375 40.628906 C 41.429688 38.105469 46.160156 38.253906 46.160156 38.253906 L 49.5 38.253906 C 49.5 38.253906 50.03125 43.046875 44.738281 42.988281 " fill-opacity="1" fill-rule="nonzero"/><path fill="#6bb745" d="M 50.832031 31.542969 L 54.246094 31.542969 L 59.25 41.503906 L 64.253906 31.542969 L 67.351562 31.542969 L 58.296875 49.304688 L 54.988281 49.304688 L 57.617188 44.378906 Z M 50.832031 31.542969 " fill-opacity="1" fill-rule="nonzero"/><path fill="#231f20" d="M 68.5 32.253906 L 68.5 31.890625 L 68.378906 31.890625 L 68.378906 31.757812 L 68.5 31.757812 L 68.5 31.558594 L 68.710938 31.558594 L 68.710938 31.757812 L 68.953125 31.757812 L 68.953125 31.890625 L 68.710938 31.890625 L 68.710938 32.238281 C 68.710938 32.300781 68.757812 32.332031 68.816406 32.332031 C 68.863281 32.332031 68.910156 32.316406 68.9375 32.300781 L 68.9375 32.4375 C 68.894531 32.453125 68.832031 32.464844 68.757812 32.464844 C 68.605469 32.453125 68.5 32.40625 68.5 32.253906 " fill-opacity="1" fill-rule="nonzero"/><path fill="#231f20" d="M 69.164062 31.742188 L 69.378906 31.742188 L 69.378906 31.847656 C 69.4375 31.785156 69.511719 31.726562 69.648438 31.726562 C 69.769531 31.726562 69.875 31.769531 69.921875 31.847656 C 69.996094 31.769531 70.085938 31.726562 70.222656 31.726562 C 70.421875 31.726562 70.542969 31.816406 70.542969 32 L 70.542969 32.453125 L 70.328125 32.453125 L 70.328125 32.058594 C 70.328125 31.953125 70.269531 31.890625 70.148438 31.890625 C 70.042969 31.890625 69.953125 31.953125 69.953125 32.058594 L 69.953125 32.453125 L 69.738281 32.453125 L 69.738281 32.058594 C 69.738281 31.953125 69.664062 31.890625 69.558594 31.890625 C 69.4375 31.890625 69.363281 31.953125 69.363281 32.058594 L 69.363281 32.453125 L 69.152344 32.453125 L 69.152344 31.742188 Z M 69.164062 31.742188 " fill-opacity="1" fill-rule="nonzero"/></svg>